<?xml version="1.0" encoding="iso-8859-1"?>
<!-- Generator: Adobe Illustrator 19.0.0, SVG Export Plug-In . SVG Version: 6.00 Build 0)  -->
<svg xmlns="http://www.w3.org/2000/svg" xmlns:xlink="http://www.w3.org/1999/xlink" version="1.1" id="Layer_1" x="0px" y="0px" viewBox="0 0 512.001 512.001" style="enable-background:new 0 0 512.001 512.001;" xml:space="preserve">
<ellipse style="fill:#41A85F;" cx="255.997" cy="441.011" rx="193.552" ry="60.945"/>
<path style="fill:#EF584F;" d="M386.595,140.642C386.595,212.768,256,452.071,256,452.071S125.405,212.768,125.405,140.642  S183.874,10.047,256,10.047S386.595,68.516,386.595,140.642z"/>
<path style="fill:#EFEFEF;" d="M300.675,87.224c-23.039,0-42.022,17.317-44.674,39.643c-2.651-22.326-21.635-39.643-44.674-39.643  c-24.854,0-45.003,20.149-45.003,45.003c0,47.337,89.673,100.006,89.673,100.006h0.009c0,0,89.673-52.67,89.673-100.006  C345.678,107.373,325.529,87.224,300.675,87.224z"/>
<g>
	<path style="fill:#231F20;" d="M395.877,388.334c-24.652-7.762-54.574-13.22-87.143-16.057   c38.38-77.045,87.907-185.422,87.907-231.635C396.641,63.091,333.549,0,256,0S115.359,63.091,115.359,140.641   c0,46.214,49.528,154.59,87.907,231.635c-32.569,2.837-62.491,8.295-87.143,16.057c-41.683,13.127-63.716,31.342-63.716,52.677   s22.033,39.55,63.717,52.677c37.506,11.81,87.182,18.313,139.876,18.313s102.37-6.505,139.876-18.313   c41.685-13.127,63.718-31.342,63.718-52.677S437.561,401.46,395.877,388.334z M135.451,140.642   c0-66.471,54.078-120.549,120.549-120.549s120.549,54.078,120.549,120.549c0,19.527-11.154,66.323-64.291,178.377   c-22.072,46.543-44.35,89.331-56.258,111.782c-11.908-22.452-34.188-65.239-56.258-111.782   C146.606,206.965,135.451,160.169,135.451,140.642z M389.843,474.522c-35.607,11.212-83.14,17.387-133.842,17.387   s-98.236-6.174-133.842-17.387c-36.616-11.529-49.661-24.87-49.661-33.512s13.045-21.983,49.66-33.512   c25.304-7.968,56.643-13.379,90.85-15.85c18.37,36.188,32.454,62.084,34.174,65.235c1.76,3.227,5.142,5.234,8.818,5.234   s7.057-2.007,8.818-5.234c1.72-3.152,15.805-29.047,34.174-65.235c34.208,2.471,65.546,7.883,90.85,15.85   c36.616,11.529,49.661,24.87,49.661,33.512S426.458,462.994,389.843,474.522z"/>
	<path style="fill:#231F20;" d="M264.966,369.798c10.393-20.552,20.184-40.506,29.102-59.308c2.378-5.013,0.241-11.004-4.772-13.381   c-5.016-2.378-11.004-0.241-13.381,4.772c-8.845,18.65-18.561,38.45-28.878,58.851c-2.503,4.952-0.52,10.994,4.431,13.499   c1.454,0.734,3.001,1.083,4.526,1.083C259.663,375.313,263.198,373.296,264.966,369.798z"/>
	<path style="fill:#231F20;" d="M311.136,248.698c-5.082-2.231-11.007,0.078-13.237,5.16l-0.586,1.33   c-2.233,5.079,0.074,11.007,5.152,13.24c1.316,0.579,2.687,0.853,4.038,0.853c3.864,0,7.546-2.241,9.202-6.005l0.589-1.34   C318.525,256.856,316.215,250.929,311.136,248.698z"/>
	<path style="fill:#231F20;" d="M256.005,242.279c1.789,0,3.545-0.478,5.087-1.383c0.946-0.557,23.437-13.835,46.261-33.265   c32.096-27.324,48.369-52.692,48.369-75.404c0-30.354-24.695-55.049-55.049-55.049c-18.25,0-34.622,8.94-44.674,22.875   c-10.052-13.934-26.424-22.875-44.674-22.875c-30.354,0-55.049,24.695-55.049,55.049c0,22.71,16.274,48.079,48.369,75.404   c22.824,19.43,45.314,32.709,46.261,33.265C252.451,241.801,254.216,242.279,256.005,242.279z M176.369,132.228   c0-19.276,15.681-34.957,34.957-34.957c17.697,0,32.614,13.233,34.698,30.782c0.601,5.054,4.886,8.86,9.975,8.86   s9.376-3.806,9.975-8.86c2.085-17.549,17.001-30.782,34.698-30.782c19.276,0,34.957,15.681,34.957,34.957   c0,31.826-53.407,71.838-79.631,88.252C229.776,204.064,176.369,164.054,176.369,132.228z"/>
</g>
<g>
</g>
<g>
</g>
<g>
</g>
<g>
</g>
<g>
</g>
<g>
</g>
<g>
</g>
<g>
</g>
<g>
</g>
<g>
</g>
<g>
</g>
<g>
</g>
<g>
</g>
<g>
</g>
<g>
</g>
</svg>
