<?xml version="1.0" encoding="utf-8"?>
<!-- Generator: Adobe Illustrator 16.0.0, SVG Export Plug-In . SVG Version: 6.00 Build 0)  -->
<!DOCTYPE svg PUBLIC "-//W3C//DTD SVG 1.1//EN" "http://www.w3.org/Graphics/SVG/1.1/DTD/svg11.dtd">
<svg version="1.1" id="Layer_1" xmlns="http://www.w3.org/2000/svg" xmlns:xlink="http://www.w3.org/1999/xlink" x="0px" y="0px"
	 width="66px" height="66px" viewBox="0 0 66 66" enable-background="new 0 0 66 66" xml:space="preserve">
<g>
	<path fill="#D60949" d="M50.5,19.316c0-9.649-7.85-17.5-17.5-17.5s-17.5,7.851-17.5,17.5c0,6.159,3.205,11.575,8.029,14.694
		l8.574,20.804c0.15,0.364,0.504,0.601,0.896,0.601c0.395,0,0.748-0.237,0.898-0.601l8.574-20.805
		C47.295,30.89,50.5,25.475,50.5,19.316z"/>
	<path fill="#B20040" d="M33,55.415c0.395,0,0.748-0.237,0.898-0.601l8.574-20.805c4.822-3.12,8.027-8.535,8.027-14.693
		c0-9.649-7.85-17.5-17.5-17.5"/>
	<circle fill="#D60949" cx="33" cy="61.88" r="2.304"/>
	<circle fill="#EBF0F2" cx="33" cy="19.155" r="7.357"/>
	<path fill="#C6D6DB" d="M33,11.798c4.064,0,7.357,3.294,7.357,7.357c0,4.062-3.293,7.357-7.357,7.357"/>
</g>
</svg>
